#!OML:ASF F:\VICON\USERDATA\INSTALL\rory3\rory3.ASF
:FULLY-SPECIFIED
:DEGREES
3001
root -0.518004 17.1133 0.159016 -4.02443 8.59355 -8.63863
lowerback -4.12509 -0.127927 -4.54838
upperback -3.44946 -0.0601689 -7.84283
thorax -1.26324 -0.0224804 -5.60367
lowerneck 8.71892 -16.5784 -27.7313
upperneck 31.0668 -30.7513 17.5747
head 17.8094 -16.1986 6.58656
rclavicle -1.82882e-014 3.49861e-014
rhumerus -42.5596 0.0918075 -95.6874
rradius 29.5347
rwrist 21.5727
rhand -2.12612 17.9885
rfingers 7.12502
rthumb 23.5524 -10.5894
lclavicle -1.82882e-014 3.49861e-014
lhumerus 210.717 -211.347 -85.1226
lradius 133.802
lwrist 83.5489
lhand -21.9903 23.5379
lfingers 7.12502
lthumb 4.4181 53.4719
rfemur 13.6121 5.1318 32.6937
rtibia 1.11319e-014
rfoot -7.95048 -16.584
rtoes -8.33087
lfemur -5.33498 -15.5066 -7.56635
ltibia 29.6444
lfoot -22.043 0.186728
ltoes -16.2565
3002
root -0.523857 17.1071 0.152274 -4.20452 8.84015 -8.77628
lowerback -3.94224 -0.0801613 -4.66793
upperback -3.33075 0.000490407 -7.81189
thorax -1.23822 0.010931 -5.49964
lowerneck 8.74605 -16.5849 -27.9282
upperneck 30.9128 -30.7323 17.6214
head 17.7682 -16.2048 6.6296
rclavicle -2.70347e-014 4.77083e-014
rhumerus -42.4834 -0.22124 -95.0412
rradius 29.2524
rwrist 21.5545
rhand -2.58808 17.7787
rfingers 7.12502
rthumb 23.1092 -10.8554
lclavicle -2.70347e-014 4.77083e-014
lhumerus 210.646 -211.244 -84.8375
lradius 133.976
lwrist 83.6163
lhand -21.7907 23.799
lfingers 7.12502
lthumb 4.61084 53.7288
rfemur 13.7261 4.82787 32.8313
rtibia 3.33958e-014
rfoot -7.97309 -16.5613
rtoes -8.39404
lfemur -5.41692 -15.5727 -7.40131
ltibia 29.879
lfoot -22.0294 -0.0445495
ltoes -16.3372
3003
root -0.530073 17.1044 0.14578 -4.30766 9.07392 -8.89635
lowerback -3.81934 -0.0399536 -4.7908
upperback -3.24802 0.0534807 -7.78859
thorax -1.21797 0.0403023 -5.40282
lowerneck 8.90381 -16.5382 -28.085
upperneck 30.5887 -30.6277 17.7097
head 17.5736 -16.1783 6.72404
rclavicle -2.70347e-014 6.99722e-014
rhumerus -42.3478 -0.492624 -94.4665
rradius 28.8026
rwrist 21.4655
rhand -3.10209 17.5833
rfingers 7.12502
rthumb 22.616 -11.1117
lclavicle -2.70347e-014 6.99722e-014
lhumerus 210.745 -211.327 -84.4518
lradius 133.936
lwrist 83.9329
lhand -21.4756 23.857
lfingers 7.12502
lthumb 4.9151 53.7799
rfemur 13.7615 4.55373 32.9478
rtibia -5.725e-014
rfoot -7.97642 -16.5371
rtoes -8.33769
lfemur -5.54513 -15.613 -7.23573
ltibia 30.0521
lfoot -21.9816 -0.277189
ltoes -16.0747
3004
root -0.536941 17.1029 0.13502 -4.37544 9.3631 -8.89115
lowerback -3.68426 -0.0325523 -5.04546
upperback -3.11839 0.0692534 -7.76385
thorax -1.15867 0.0531047 -5.23088
lowerneck 8.86686 -16.5266 -28.1898
upperneck 30.3058 -30.5144 17.7483
head 17.415 -16.125 6.77261
rclavicle -2.38542e-015 6.36111e-014
rhumerus -42.1136 -0.747865 -93.8368
rradius 28.3527
rwrist 21.4687
rhand -3.80199 17.2939
rfingers 7.12502
rthumb 21.9441 -11.4814
lclavicle -2.38542e-015 6.36111e-014
lhumerus 211.174 -211.452 -83.7839
lradius 133.744
lwrist 84.2207
lhand -21.1672 23.5079
lfingers 7.12502
lthumb 5.21288 53.4238
rfemur 13.7599 4.24074 32.9219
rtibia -3.18055e-015
rfoot -7.90877 -16.4779
rtoes -8.26104
lfemur -5.7204 -15.6699 -7.19092
ltibia 30.1803
lfoot -21.9457 -0.492311
ltoes -16.111
3005
root -0.543958 17.1023 0.123036 -4.41184 9.66547 -8.8268
lowerback -3.53318 -0.00801821 -5.27805
upperback -2.99907 0.104232 -7.78281
thorax -1.11844 0.07451 -5.11803
lowerneck 8.6842 -16.5084 -28.2355
upperneck 30.1687 -30.3412 17.6848
head 17.3068 -16.0339 6.7772
rclavicle -1.82882e-014 -1.90833e-014
rhumerus -41.8064 -1.33521 -93.0683
rradius 27.7372
rwrist 21.8029
rhand -4.59944 17.2196
rfingers 7.12502
rthumb 21.1782 -11.6436
lclavicle -1.82882e-014 -1.90833e-014
lhumerus 211.747 -211.496 -83.0154
lradius 133.423
lwrist 84.6339
lhand -21.1495 22.9653
lfingers 7.12502
lthumb 5.23003 52.8808
rfemur 13.7301 3.92544 32.8285
rtibia 7.95139e-015
rfoot -7.94262 -16.379
rtoes -8.40461
lfemur -5.90699 -15.753 -7.20494
ltibia 30.2565
lfoot -21.8697 -0.77667
ltoes -15.6588
3006
root -0.552938 17.1 0.110485 -4.46316 9.89051 -8.83672
lowerback -3.35631 0.0293109 -5.3942
upperback -2.89185 0.148767 -7.79777
thorax -1.10454 0.0986386 -5.06669
lowerneck 8.60617 -16.4192 -28.2481
upperneck 29.8153 -30.0819 17.7616
head 17.06 -15.9038 6.87353
rclavicle 4.77083e-015 6.36111e-014
rhumerus -41.3988 -2.20788 -92.1883
rradius 26.8737
rwrist 22.5026
rhand -5.28148 17.5013
rfingers 7.12502
rthumb 20.5229 -11.4339
lclavicle 4.77083e-015 6.36111e-014
lhumerus 212.396 -211.557 -82.2241
lradius 132.983
lwrist 84.8632
lhand -21.3118 22.5057
lfingers 7.12502
lthumb 5.07331 52.425
rfemur 13.6987 3.67655 32.8352
rtibia -2.06736e-014
rfoot -7.99449 -16.327
rtoes -8.24748
lfemur -6.04589 -15.7168 -7.11601
ltibia 30.2897
lfoot -21.7435 -1.05427
ltoes -15.5297
3007
root -0.557893 17.1008 0.100888 -4.48976 10.1687 -8.86207
lowerback -3.23152 0.0230558 -5.37054
upperback -2.79563 0.136751 -7.85832
thorax -1.07508 0.0918111 -5.14423
lowerneck 8.50123 -16.3477 -28.22
upperneck 29.6113 -29.8729 17.793
head 16.8997 -15.7952 6.93125
rclavicle -1.98785e-014 2.8625e-014
rhumerus -41.0437 -3.07296 -91.434
rradius 26.0483
rwrist 23.2485
rhand -6.00748 17.6524
rfingers 7.12502
rthumb 19.8252 -11.3565
lclavicle -1.98785e-014 2.8625e-014
lhumerus 213.134 -211.638 -81.5234
lradius 132.474
lwrist 84.9799
lhand -21.7271 22.6522
lfingers 7.12502
lthumb 4.67225 52.5807
rfemur 13.6547 3.38288 32.8337
rtibia 3.18055e-015
rfoot -7.99126 -16.3177
rtoes -7.93188
lfemur -6.19135 -15.739 -7.02877
ltibia 30.3094
lfoot -21.6518 -1.35151
ltoes -15.2879
3008
root -0.560477 17.1025 0.0905343 -4.5089 10.4054 -8.86799
lowerback -3.07931 0.0486659 -5.28626
upperback -2.70867 0.161993 -7.9636
thorax -1.06858 0.102532 -5.30312
lowerneck 8.40638 -16.3217 -28.115
upperneck 29.454 -29.7485 17.811
head 16.7725 -15.718 6.95058
rclavicle -1.19271e-014 5.08889e-014
rhumerus -40.7518 -3.98578 -90.7745
rradius 25.3803
rwrist 23.8958
rhand -6.56851 17.5093
rfingers 7.12502
rthumb 19.2858 -11.5544
lclavicle -1.19271e-014 5.08889e-014
lhumerus 214.099 -211.632 -80.7431
lradius 131.904
lwrist 85.2004
lhand -21.8888 23.5536
lfingers 7.12502
lthumb 4.51619 53.4854
rfemur 13.6201 3.13397 32.8039
rtibia -2.70347e-014
rfoot -8.05095 -16.2986
rtoes -8.00017
lfemur -6.3374 -15.7546 -6.98258
ltibia 30.3543
lfoot -21.5381 -1.57741
ltoes -15.2577
3009
root -0.565942 17.1055 0.0766882 -4.4241 10.6315 -8.92872
lowerback -2.99597 0.031225 -5.19948
upperback -2.58675 0.140733 -8.01044
thorax -0.989352 0.0900433 -5.40166
lowerneck 7.99856 -16.3501 -28.0091
upperneck 29.4048 -29.6293 17.7648
head 16.7534 -15.6177 6.90855
rclavicle 1.66979e-014 2.22639e-014
rhumerus -40.2625 -4.93087 -90.0668
rradius 24.6581
rwrist 24.6881
rhand -7.04361 17.3612
rfingers 7.12502
rthumb 18.8289 -11.7475
lclavicle 1.66979e-014 2.22639e-014
lhumerus 215.451 -211.473 -79.7349
lradius 131.145
lwrist 85.056
lhand -21.7234 24.1368
lfingers 7.12502
lthumb 4.67583 54.0652
rfemur 13.4426 2.915 32.839
rtibia -1.59028e-014
rfoot -8.018 -16.2604
rtoes -7.89364
lfemur -6.61637 -15.7565 -6.82809
ltibia 30.3725
lfoot -21.433 -1.69754
ltoes -15.7644
3010
root -0.571608 17.1066 0.0583569 -4.37773 10.816 -9.07359
lowerback -2.79591 0.00592753 -5.03634
upperback -2.54291 0.0873519 -8.01085
thorax -1.05865 0.0614846 -5.49537
lowerneck 7.71145 -16.3472 -27.8506
upperneck 29.3402 -29.4647 17.6547
head 16.6575 -15.5071 6.85939
rclavicle -3.97569e-015 3.18055e-014
rhumerus -39.9773 -5.79717 -89.4072
rradius 24.0307
rwrist 25.4696
rhand -7.56161 17.357
rfingers 7.12502
rthumb 18.3306 -11.7993
lclavicle -3.97569e-015 3.18055e-014
lhumerus 216.184 -211.063 -79.3327
lradius 130.369
lwrist 84.3083
lhand -21.9698 24.2334
lfingers 7.12502
lthumb 4.43795 54.1669
rfemur 13.2592 2.72535 32.9704
rtibia 7.95139e-015
rfoot -7.96581 -16.2218
rtoes -7.89697
lfemur -6.879 -15.7962 -6.5862
ltibia 30.3766
lfoot -21.303 -1.83598
ltoes -15.7695
3011
root -0.574902 17.1125 0.0442484 -4.27261 11.0101 -8.99719
lowerback -2.64287 -0.0212822 -5.05886
upperback -2.57273 0.0331165 -8.05248
thorax -1.17923 0.0352287 -5.52884
lowerneck 7.68557 -16.2676 -27.7518
upperneck 29.1891 -29.2625 17.625
head 16.4847 -15.4057 6.88996
rclavicle -3.18055e-014 -9.85972e-014
rhumerus -39.7973 -6.67325 -88.6938
rradius 23.3236
rwrist 26.349
rhand -8.00735 17.1895
rfingers 7.12502
rthumb 17.9018 -12.0066
lclavicle -3.18055e-014 -9.85972e-014
lhumerus 216.027 -210.63 -79.7192
lradius 129.66
lwrist 83.4176
lhand -22.506 24.3546
lfingers 7.12502
lthumb 3.92014 54.2983
rfemur 13.0808 2.55049 32.8557
rtibia 2.8625e-014
rfoot -7.92081 -16.1857
rtoes -7.6944
lfemur -7.11043 -15.8862 -6.62226
ltibia 30.3564
lfoot -21.1936 -1.80894
ltoes -16.2017
3012
root -0.574198 17.1195 0.0345734 -4.17466 11.1679 -8.91179
lowerback -2.54511 -0.028126 -5.05077
upperback -2.59254 0.0120835 -8.07228
thorax -1.2562 0.0250014 -5.55537
lowerneck 7.4774 -16.1761 -27.7942
upperneck 29.2244 -29.074 17.6669
head 16.5044 -15.3082 6.95106
rclavicle -1.90833e-014 -3.81667e-014
rhumerus -39.6851 -7.49083 -87.9747
rradius 22.7449
rwrist 27.1488
rhand -8.31194 16.9756
rfingers 7.12502
rthumb 17.6087 -12.247
lclavicle -1.90833e-014 -3.81667e-014
lhumerus 215.772 -210.184 -80.1231
lradius 128.916
lwrist 82.5372
lhand -22.3729 24.3548
lfingers 7.12502
lthumb 4.04864 54.296
rfemur 12.9526 2.41095 32.7173
rtibia -3.49861e-014
rfoot -7.88246 -16.1353
rtoes -7.69417
lfemur -7.26813 -15.9296 -6.69212
ltibia 30.3092
lfoot -21.1344 -1.88101
ltoes -15.9579
